<svg width="65" height="65" viewBox="0 0 65 65" fill="none" xmlns="http://www.w3.org/2000/svg">
<g clip-path="url(#clip0_4_7)">
<path d="M13.0882 60.6802V60.6829C13.0882 63.0689 11.4307 65.0027 9.38555 65.0027H9.37162C8.39023 65.0027 7.44903 64.5479 6.75507 63.7382C6.06112 62.9286 5.67126 61.8306 5.67126 60.6856V4.31977C5.67126 1.93373 7.32876 0.00268555 9.37162 0.00268555H9.38555C11.4307 0.00268555 13.0882 1.93644 13.0882 4.32248V60.6802Z" fill="white"/>
<path d="M4.67534 7.2746H2.08695C1.54863 7.30347 1.04051 7.57311 0.668098 8.02752C0.295683 8.48194 0.0875738 9.08622 0.0869764 9.71493C0.0863789 10.3436 0.293339 10.9485 0.66489 11.4038C1.03644 11.8592 1.54404 12.1302 2.0823 12.1604H4.67302L4.67534 7.2746Z" fill="white"/>
<path d="M59.4378 16.1146H22.295C20.6617 16.1174 19.0961 16.8756 17.9412 18.223C16.7863 19.5704 16.1364 21.397 16.1339 23.3025V48.3491C16.1339 50.2541 16.7825 52.081 17.9371 53.4279C19.0916 54.7749 20.6576 55.5316 22.2903 55.5316H59.4378C61.0711 55.5288 62.6368 54.7706 63.7917 53.4232C64.9466 52.0758 65.5965 50.2492 65.5989 48.3437V23.3025V23.2971C65.5989 22.3538 65.4397 21.4199 65.1303 20.5484C64.8209 19.677 64.3674 18.8852 63.7957 18.2183C63.2241 17.5513 62.5454 17.0223 61.7985 16.6613C61.0515 16.3003 60.251 16.1146 59.4425 16.1146H59.4378ZM62.4093 48.3437C62.4062 49.2585 62.0934 50.1347 61.539 50.7815C60.9846 51.4283 60.2335 51.7933 59.4495 51.7969H22.3019C20.67 51.7969 19.3468 50.2531 19.3468 48.3491V23.2998C19.3498 22.3855 19.6623 21.5097 20.2162 20.8629C20.7701 20.2162 21.5206 19.8509 22.3043 19.8466H59.4471C60.2312 19.8502 60.9823 20.2152 61.5367 20.862C62.0911 21.5088 62.4039 22.385 62.407 23.2998L62.4093 48.3437Z" fill="white"/>
<path d="M53.6482 14.7252C54.2208 14.7252 54.7699 14.4598 55.1748 13.9875C55.5797 13.5151 55.8071 12.8745 55.8071 12.2065V7.16896C55.8071 6.50094 55.5797 5.86029 55.1748 5.38793C54.7699 4.91558 54.2208 4.65021 53.6482 4.65021C53.0756 4.65021 52.5265 4.91558 52.1216 5.38793C51.7167 5.86029 51.4893 6.50094 51.4893 7.16896V12.2065C51.4893 13.5985 52.4573 14.7252 53.6482 14.7252Z" fill="white"/>
<path d="M31.3091 7.2746H50.426V12.1604H31.3091V7.2746Z" fill="white"/>
<path d="M64.018 9.6877C64.0168 9.04886 63.7987 8.43659 63.4115 7.98486C63.0243 7.53313 62.4995 7.27871 61.9519 7.27728H57.1675V12.1631H61.9496C62.497 12.161 63.0215 11.9063 63.4085 11.4548C63.7956 11.0032 64.0139 10.3913 64.0157 9.7527L64.018 9.6877Z" fill="white"/>
<path d="M28.405 40.6548H26.1532V38.2227H24.0872V45.194H26.1532V42.3773H28.405V45.194H30.4711V38.2227H28.405V40.6548Z" fill="white"/>
<path d="M28.0916 14.7252C28.6642 14.7252 29.2133 14.4598 29.6182 13.9875C30.0231 13.5151 30.2505 12.8745 30.2505 12.2065V7.16896V7.09584C30.2505 6.42782 30.0231 5.78717 29.6182 5.31481C29.2133 4.84245 28.6642 4.57709 28.0916 4.57709C27.519 4.57709 26.9699 4.84245 26.565 5.31481C26.1601 5.78717 25.9327 6.42782 25.9327 7.09584V7.17438V7.17167V12.2092C25.9327 12.8772 26.1601 13.5178 26.565 13.9902C26.9699 14.4626 27.519 14.7279 28.0916 14.7279V14.7252Z" fill="white"/>
<path d="M37.6025 39.0271C36.8602 38.4163 35.9735 38.0897 35.0651 38.0927C34.1041 38.0927 33.215 38.4502 32.4884 39.0596L32.5023 39.0488C32.2129 39.3616 31.9821 39.7407 31.8243 40.1625C31.6665 40.5843 31.5852 41.0396 31.5853 41.4998L31.59 41.7084V41.7002L31.5876 41.8546C31.5876 42.5534 31.7618 43.2061 32.0635 43.7559L32.0566 43.7423C32.3468 44.265 32.7507 44.674 33.2289 44.9286L33.2451 44.9367C33.7396 45.1723 34.3153 45.3104 34.9166 45.3104L35.1116 45.305H35.1023L35.2207 45.3077C35.8498 45.3077 36.4487 45.1479 36.9873 44.8609L36.9618 44.8744C37.4423 44.6063 37.8323 44.1892 38.0923 43.6719L38.0993 43.6584C38.3578 43.0895 38.4926 42.4552 38.4916 41.8113L38.4893 41.6542V41.6623L38.4939 41.4619C38.4939 40.5086 38.1526 39.6473 37.6048 39.0379L37.6025 39.0271ZM36.0773 43.2413C35.9543 43.3863 35.8078 43.5014 35.6465 43.5799C35.4851 43.6585 35.312 43.699 35.1371 43.699L35.0489 43.6963H35.0535L34.9909 43.699C34.6314 43.6997 34.2861 43.5353 34.0298 43.2413C33.7843 42.785 33.6544 42.2571 33.6553 41.7184C33.6561 41.1797 33.7875 40.6523 34.0344 40.1971L34.0275 40.2079C34.2944 39.9236 34.6496 39.7529 35.0419 39.7529C35.4343 39.7529 35.7894 39.9263 36.0564 40.2107H36.0541C36.1955 40.4101 36.3013 40.6406 36.3651 40.8885C36.4289 41.1365 36.4494 41.3968 36.4255 41.6542V41.6461C36.4782 42.2148 36.352 42.7866 36.0703 43.2548L36.075 43.2467L36.0773 43.2413Z" fill="white"/>
<path d="M38.8862 39.9371H40.9894V45.194H43.0555V39.9371H45.1587V38.22H38.8862V39.9371Z" fill="white"/>
<path d="M48.1581 42.2419H51.3616V40.8065H48.1581V39.6988H51.6031V38.22H46.092V45.1913H51.7145V43.6042H48.1581V42.2419Z" fill="white"/>
<path d="M54.8762 38.2227H52.8102V45.194H58.0984V43.4769H54.8786L54.8762 38.2227Z" fill="white"/>
<path d="M24.628 32.5759L26.5641 31.3788L28.5187 32.5759L28.1473 30.0571L29.712 28.275L27.553 27.9067L26.5664 25.6046L25.5984 27.9067L23.4395 28.275L25.0041 30.0571L24.628 32.5759Z" fill="white"/>
<path d="M31.7943 32.5759L33.7304 31.3788L35.6664 32.5759L35.295 30.0571L36.8573 28.275L34.6984 27.9067L33.7304 25.6046L32.7623 27.9067L30.5848 28.275L32.1495 30.0571L31.7943 32.5759Z" fill="white"/>
<path d="M38.9419 32.5759L40.878 31.3788L42.8141 32.5759L42.4427 30.0571L44.0073 28.275L41.8484 27.9067L40.8803 25.6046L39.9123 27.9067L37.7348 28.275L39.318 30.0571L38.9419 32.5759Z" fill="white"/>
<path d="M46.0897 32.5759L48.0257 31.3788L49.9618 32.5759L49.5904 30.0571L51.155 28.275L48.9961 27.9067L48.028 25.6046L47.06 27.9067L44.8825 28.275L46.4657 30.0571L46.0897 32.5759Z" fill="white"/>
<path d="M55.1711 25.6046L54.2031 27.9067L52.0441 28.275L53.6064 30.0571L53.235 32.5759L55.1711 31.3788L57.1072 32.5759L56.7357 30.0571L58.3189 28.275L56.1414 27.9067L55.1711 25.6046Z" fill="white"/>
<path d="M14.2582 7.2746H24.5886V12.1604H14.2582V7.2746Z" fill="white"/>
</g>
<defs>
<clipPath id="clip0_4_7">
<rect width="65" height="65" fill="white"/>
</clipPath>
</defs>
</svg>
